<svg xmlns="http://www.w3.org/2000/svg" width="177" height="74" viewBox="0 0 177 74"><defs><style>.a{fill:#fff;}.b,.c{fill:#f8f7f3;}.c{stroke:#153139;stroke-miterlimit:10;}.d{fill:#153139;}.e{fill:#660331;}</style></defs><path class="a" d="M217.23,113.679h10.249l7.494-12.239H224.739Z" transform="translate(-163.709 -77.705)"/><path class="b" d="M157.092,49.319,149.46,37.46h15.267Z" transform="translate(-121.204 -37.46)"/><path class="c" d="M178.366,81.552l7.706-11.882H170.66Z" transform="translate(-134.501 -57.72)"/><path class="c" d="M135.362,81.548l-7.7-11.878h15.408Z" transform="translate(-107.532 -57.72)"/><path class="b" d="M156.14,68.39,147.99,80.9h16.285Z" transform="translate(-120.282 -56.916)"/><path class="d" d="M206.325,101.636,198.9,113.514l.108.171h.007l7.65-12.236h-15.3l.116.186Z" transform="translate(-147.484 -77.711)"/><path class="d" d="M191.67,102l7.423,11.878L206.519,102Zm.3.186h14.215l-7.106,11.367Z" transform="translate(-147.678 -78.056)"/><path class="b" d="M206.685,102.45H192.47l7.11,11.367Z" transform="translate(-148.18 -78.338)"/><path class="b" d="M109.06,102.44l7.087,11.341,7.1-11.341Z" transform="translate(-95.866 -78.332)"/><path class="d" d="M115.012,113.508l-7.426-11.882h14.86l.116-.186.116.171.1-.171H107.25l7.65,12.239h0Z" transform="translate(-94.731 -77.705)"/><path class="d" d="M108.15,101.94l7.426,11.882,7.43-11.882Zm7.426,11.527-7.083-11.341h14.186Z" transform="translate(-95.295 -78.019)"/><path class="e" d="M156.377,113.679l7.855-12.038.13-.2H148.32l.116.171h0Z" transform="translate(-120.489 -77.705)"/><path class="b" d="M191.35,101.44v0h0Z" transform="translate(-147.477 -77.685)"/><path class="b" d="M198.781,113.686l-.108-.171-.015.03-7.445-11.908h.037l-.116-.186h0l-.131.2,7.527,12.038Z" transform="translate(-147.258 -77.711)"/><path class="b" d="M191.57,101.95l7.445,11.908.015-.03-7.423-11.878Z" transform="translate(-147.615 -78.025)"/><path class="b" d="M185.375,114.018l-7.527-12.038h0l-7.818,12.038Z" transform="translate(-134.106 -78.044)"/><path class="b" d="M169.967,114.018l7.818-12.038-7.855,12.038Z" transform="translate(-134.043 -78.044)"/><path class="b" d="M128.38,113.968h15.457L135.93,101.9Z" transform="translate(-107.983 -77.994)"/><path class="b" d="M148.63,101.9h0l7.907,12.068h.034Z" transform="translate(-120.684 -77.994)"/><path class="b" d="M135.322,101.626h.026l-7.441,11.908-.019-.026-.108.171H128l7.549-12.068-.116-.171Z" transform="translate(-107.607 -77.705)"/><path class="b" d="M135.53,101.94H135.5l-7.434,11.882.019.026Z" transform="translate(-107.789 -78.019)"/><path class="a" d="M91.422,113.679H81.174L73.68,101.44H83.914Z" transform="translate(-73.676 -77.705)"/><path class="a" d="M217.22,139.96h10.249l7.5,12.239H224.729Z" transform="translate(-163.703 -101.935)"/><path class="b" d="M157.085,204.96l-7.635,11.859h15.27Z" transform="translate(-121.198 -142.819)"/><path class="c" d="M178.356,172.69l7.706,11.882H170.65Z" transform="translate(-134.494 -122.521)"/><path class="c" d="M135.356,172.7l-7.706,11.878h15.412Z" transform="translate(-107.526 -122.527)"/><path class="b" d="M156.136,184.792,147.99,172.28h16.281Z" transform="translate(-120.282 -122.266)"/><path class="d" d="M206.319,152.009l-7.426-11.878.108-.171h0l7.65,12.236h-15.3l.116-.186Z" transform="translate(-147.477 -101.935)"/><path class="d" d="M206.513,152.3l-7.426-11.878L191.66,152.3Zm-7.456-11.557,7.106,11.367h-14.2Z" transform="translate(-147.672 -102.223)"/><path class="b" d="M206.682,152.657H192.47l7.106-11.367Z" transform="translate(-148.18 -102.769)"/><path class="b" d="M109.05,152.711l7.091-11.341,7.095,11.341Z" transform="translate(-95.86 -102.819)"/><path class="d" d="M115.012,140.135l-7.426,11.878h14.86l.116.186.112-.171.108.171H107.25l7.65-12.239h0Z" transform="translate(-94.731 -101.935)"/><path class="d" d="M123,152.3l-7.434-11.882L108.14,152.3Zm-.339-.186H108.494l7.083-11.341Z" transform="translate(-95.289 -102.223)"/><path class="e" d="M156.377,139.96,164.232,152l.13.2H148.32l.112-.171h0Z" transform="translate(-120.489 -101.935)"/><path class="b" d="M191.344,172.784l0,0h0Z" transform="translate(-147.471 -122.538)"/><path class="b" d="M198.781,139.96l-.108.171-.019-.026-7.441,11.9h.034l-.116.186h0L191,152l7.523-12.038Z" transform="translate(-147.258 -101.935)"/><path class="b" d="M191.57,152.254l7.441-11.9.019.026L191.6,152.254Z" transform="translate(-147.615 -102.179)"/><path class="b" d="M185.365,139.96,177.842,152h0L170.02,139.96Z" transform="translate(-134.099 -101.934)"/><path class="b" d="M169.964,139.96,177.785,152,169.93,139.96Z" transform="translate(-134.043 -101.934)"/><path class="b" d="M128.37,139.96h15.457l-7.907,12.068Z" transform="translate(-107.977 -101.934)"/><path class="b" d="M148.62,152.028h0l7.907-12.068h.037Z" transform="translate(-120.678 -101.934)"/><path class="b" d="M135.322,152.013h.026L127.9,140.105l-.015.03-.108-.175H128l7.549,12.068-.112.171Z" transform="translate(-107.607 -101.935)"/><path class="b" d="M135.53,152.258H135.5L128.07,140.38l.015-.03Z" transform="translate(-107.789 -102.179)"/><path class="a" d="M91.416,139.97H81.167l-7.5,12.236H83.907Z" transform="translate(-73.67 -101.941)"/><g transform="translate(82.375 28.177)"><path class="a" d="M102,283.725v2.1h0a.116.116,0,0,1-.116.116H88.066a.116.116,0,1,1,0-.232h.674a1.313,1.313,0,0,0,1.308-1.313V269.62a1.308,1.308,0,0,0-1.308-1.308h-.674a.116.116,0,0,1,0-.233h6.805a.116.116,0,0,1,0,.233h-.68a1.308,1.308,0,0,0-1.308,1.308v14.738a1.587,1.587,0,0,1-.773,1.366h8.345a1.313,1.313,0,0,0,1.313-1.313v-.686a.116.116,0,1,1,.232,0Z" transform="translate(-87.95 -268.074)"/><path class="a" d="M130.96,268.2a.116.116,0,0,1-.116.116h-.68a1.308,1.308,0,0,0-1.308,1.308V279.8a6.16,6.16,0,0,1-6.155,6.154c-3.388,0-5.684-2.76-5.684-6.154V269.62a1.308,1.308,0,0,0-1.308-1.308h-.674a.116.116,0,0,1,0-.233h6.689a.116.116,0,0,1,0,.233h-.68a1.308,1.308,0,0,0-1.308,1.308V279.8c0,3.266,1.331,5.922,2.964,5.922a5.928,5.928,0,0,0,5.922-5.922V269.62a1.308,1.308,0,0,0-1.308-1.308h-.68a.116.116,0,0,1,0-.233h4.208A.116.116,0,0,1,130.96,268.2Z" transform="translate(-99.246 -268.074)"/><path class="a" d="M160.869,268.2v4.411a.116.116,0,0,1-.232,0,4.3,4.3,0,0,0-4.295-4.295h-3.255c-.645,0-1.337,1.743-1.337,4.295s.692,4.295,1.337,4.295a.116.116,0,0,1,0,.232,4.527,4.527,0,0,1,0-9.055h3.284a4.539,4.539,0,0,1,4.295,3.092V268.2a.116.116,0,1,1,.232,0Zm0,13.233a4.539,4.539,0,0,1-4.527,4.527h-3.255a4.545,4.545,0,0,1-4.295-3.1v2.981a.11.11,0,0,1-.11.116.116.116,0,0,1-.116-.116v-4.411a.116.116,0,0,1,.116-.116.11.11,0,0,1,.11.116,4.3,4.3,0,0,0,4.295,4.295h3.284c.645,0,1.337-1.743,1.337-4.295s-.692-4.295-1.337-4.295a.116.116,0,1,1,0-.232,4.533,4.533,0,0,1,4.5,4.527Z" transform="translate(-113.336 -268.074)"/><path class="a" d="M182.014,285.84a.116.116,0,0,1-.116.116h-6.811a.116.116,0,1,1,0-.232h.68a1.308,1.308,0,0,0,1.3-1.232v-6a1.592,1.592,0,0,1,1-1.476,1.592,1.592,0,0,1-1-1.482v-5.992a1.308,1.308,0,0,0-1.3-1.232h-.68a.116.116,0,1,1,0-.233H181.9a.116.116,0,0,1,0,.233h-.68a1.308,1.308,0,0,0-1.308,1.308v5.916a1.593,1.593,0,0,1-1,1.482,1.592,1.592,0,0,1,1,1.476v5.916a1.313,1.313,0,0,0,1.308,1.313h.68a.116.116,0,0,1,.116.116Z" transform="translate(-124.397 -268.074)"/><path class="a" d="M202.85,281.239a.168.168,0,0,1,0,.076l-1.563,4.556a.122.122,0,0,1-.11.081.116.116,0,0,1-.11-.081l-5.55-16.214h0a2.051,2.051,0,0,0-1.8-1.348h-.674a.116.116,0,1,1,0-.233h7.317a.116.116,0,0,1,0,.233h-.68a.883.883,0,0,0-.75.343,1,1,0,0,0-.076.93h0Zm6.59-13.047a.116.116,0,0,1-.116.116h-.663a2.069,2.069,0,0,0-1.8,1.348l-2.638,7.671a.116.116,0,0,1-.11.081h-.041a.116.116,0,0,1-.07-.151l2.633-7.683a1.017,1.017,0,0,0-.076-.93.884.884,0,0,0-.75-.343h-.68a.116.116,0,1,1,0-.232h4.208a.116.116,0,0,1,.116.122Z" transform="translate(-131.919 -268.07)"/><path class="a" d="M240.647,270.3a.116.116,0,0,1-.116.116.11.11,0,0,1-.11-.116v-.68a1.314,1.314,0,0,0-1.313-1.308h-7.555v7.224a1.6,1.6,0,0,1-1,1.482,1.6,1.6,0,0,1,1,1.476v7.23h7.555a1.313,1.313,0,0,0,1.313-1.313v-.686a.113.113,0,1,1,.227,0v2.1a.11.11,0,0,1-.116.116H226.716a.116.116,0,0,1,0-.232h.7a1.308,1.308,0,0,0,1.308-1.308V269.62a1.308,1.308,0,0,0-1.308-1.308h-.7a.116.116,0,0,1,0-.233h13.814a.116.116,0,0,1,.116.116Zm-4.812,8.822v-.68a1.308,1.308,0,0,0-1.308-1.308h0a.116.116,0,1,1,0-.232h0a1.308,1.308,0,0,0,1.308-1.308v-.68a.116.116,0,1,1,.232,0v4.208a.116.116,0,0,1-.232,0Z" transform="translate(-146.022 -268.074)"/></g></svg>